# xmcd
#
# Track frame offsets:
#	150
#	34565
#	75525
#	124724
#	174600
#	208883
#	233340
#	283445
#
# Disc length: 4358 seconds
#
# Revision: 2
# Processed by: cddbd v1.5.2PL0 Copyright (c) Steve Scherf et al.
# Submitted via: audiograbber 1.83.01
#
DISCID=68110408
DTITLE=Yellowjackets - Twenty Five
DYEAR=2006
DGENRE=Jazz
TTITLE0=Revelation
TTITLE1=Geraldine
TTITLE2=Jacketown
TTITLE3=Sea Folk
TTITLE4=Free Day
TTITLE5=My Old School
TTITLE6=Greenhouse
TTITLE7=RunFerYerLife
EXTD=YEAR: 2006
EXTT0=
EXTT1=
EXTT2=
EXTT3=
EXTT4=
EXTT5=
EXTT6=
EXTT7=
PLAYORDER=
